<svg version="1.1" id="Layer_1" xmlns="http://www.w3.org/2000/svg" xmlns:xlink="http://www.w3.org/1999/xlink" x="0px" y="0px"
	 width="100%" viewBox="0 0 956 1913" enable-background="new 0 0 956 1913" xml:space="preserve">
<path fill="#335795" opacity="1.000000" stroke="none" 
	d="
M1.000000,958.000000 
	C1.000000,851.645752 1.000000,745.291565 1.468657,638.468628 
	C76.183418,638.000000 150.429520,638.000000 225.000000,638.000000 
	C225.000000,635.432556 225.000000,633.461243 225.000000,631.489929 
	C225.000000,561.675964 225.064713,491.861938 224.963486,422.048157 
	C224.929886,398.873444 225.156906,375.726807 228.003967,352.689697 
	C229.948700,336.953918 231.908340,321.219299 233.994644,305.501862 
	C237.018326,282.722839 242.878876,260.586273 249.729294,238.715897 
	C257.474335,213.989334 267.890076,190.388016 281.029022,168.047821 
	C293.271027,147.232697 307.802155,128.092453 324.743500,110.879280 
	C330.977600,104.545143 337.826996,98.800957 344.554993,92.971512 
	C363.136383,76.871788 383.751160,63.819962 405.651672,52.761871 
	C429.050079,40.947468 453.436768,31.763708 478.667847,24.580748 
	C504.372955,17.262831 530.471252,11.894421 556.865112,8.175431 
	C574.884399,5.636448 593.129822,4.716824 611.260925,2.938074 
	C613.548645,2.713639 615.755615,1.666153 618.000000,0.999999 
	C619.388916,1.000000 620.777771,1.000000 622.736450,1.359310 
	C625.204163,1.479079 627.102051,1.239539 629.000000,0.999999 
	C738.259338,1.000000 847.518738,1.000000 957.000000,1.000000 
	C957.000000,107.020790 957.000000,213.041733 956.531372,319.531342 
	C893.970764,320.333313 831.878174,320.591278 769.787537,321.082001 
	C760.590576,321.154663 751.403625,322.345947 742.209717,322.984833 
	C727.496094,324.007294 713.260254,327.295105 699.332581,332.021393 
	C676.453064,339.785400 658.998108,353.760712 649.315613,376.352478 
	C641.514893,394.553558 639.330994,414.009583 639.187683,433.415436 
	C638.697815,499.738678 639.000000,566.067749 639.000000,632.394592 
	C639.000000,634.162048 639.000000,635.929504 639.000000,638.000000 
	C745.408508,638.000000 851.204224,638.000000 957.000000,638.000000 
	C957.000000,642.356873 957.000000,646.713806 956.675964,651.639893 
	C956.567993,653.139465 956.783997,654.069702 957.000000,655.000000 
	C957.000000,655.444458 957.000000,655.888916 956.622070,656.803589 
	C955.162720,664.478760 953.938049,671.665894 953.035828,678.893250 
	C951.858337,688.325256 951.007812,697.797607 949.885193,707.237061 
	C948.668945,717.464417 947.251892,727.667847 946.017456,737.893188 
	C945.192322,744.728455 944.614990,751.593750 943.780029,758.427673 
	C942.590637,768.162781 941.168701,777.870056 940.027588,787.610474 
	C938.882751,797.381348 938.083557,807.193115 936.910034,816.960205 
	C935.389038,829.619202 933.559631,842.241150 932.029968,854.899170 
	C930.869690,864.500366 930.088440,874.147461 928.926025,883.748352 
	C927.393433,896.406555 925.570129,909.029480 924.025391,921.686340 
	C922.562439,933.672852 921.297791,945.683594 919.896179,958.124756 
	C826.098511,958.124756 732.700623,958.124756 639.000000,958.124756 
	C639.000000,1277.080322 639.000000,1595.540161 639.000000,1914.000000 
	C501.312439,1914.000000 363.624878,1914.000000 225.468658,1913.531372 
	C225.000000,1594.816528 225.000000,1276.570312 225.000000,958.000000 
	C149.932968,958.000000 75.466484,958.000000 1.000000,958.000000 
z"/>
<path fill="#FFFFFF" opacity="1.000000" stroke="none" 
	d="
M639.468628,1914.000000 
	C639.000000,1595.540161 639.000000,1277.080322 639.000000,958.124756 
	C732.700623,958.124756 826.098511,958.124756 919.896179,958.124756 
	C921.297791,945.683594 922.562439,933.672852 924.025391,921.686340 
	C925.570129,909.029480 927.393433,896.406555 928.926025,883.748352 
	C930.088440,874.147461 930.869690,864.500366 932.029968,854.899170 
	C933.559631,842.241150 935.389038,829.619202 936.910034,816.960205 
	C938.083557,807.193115 938.882751,797.381348 940.027588,787.610474 
	C941.168701,777.870056 942.590637,768.162781 943.780029,758.427673 
	C944.614990,751.593750 945.192322,744.728455 946.017456,737.893188 
	C947.251892,727.667847 948.668945,717.464417 949.885193,707.237061 
	C951.007812,697.797607 951.858337,688.325256 953.035828,678.893250 
	C953.938049,671.665894 955.162720,664.478760 956.622070,657.136841 
	C957.000000,1075.883545 957.000000,1494.767212 957.000000,1914.000000 
	C851.312683,1914.000000 745.625000,1914.000000 639.468628,1914.000000 
z"/>
<path fill="#FFFFFF" opacity="1.000000" stroke="none" 
	d="
M1.000000,958.468628 
	C75.466484,958.000000 149.932968,958.000000 225.000000,958.000000 
	C225.000000,1276.570312 225.000000,1594.816528 225.000000,1913.531372 
	C150.361023,1914.000000 75.722031,1914.000000 1.000000,1914.000000 
	C1.000000,1595.645752 1.000000,1277.291504 1.000000,958.468628 
z"/>
<path fill="#FFFFFF" opacity="1.000000" stroke="none" 
	d="
M617.531372,0.999999 
	C615.755615,1.666153 613.548645,2.713639 611.260925,2.938074 
	C593.129822,4.716824 574.884399,5.636448 556.865112,8.175431 
	C530.471252,11.894421 504.372955,17.262831 478.667847,24.580748 
	C453.436768,31.763708 429.050079,40.947468 405.651672,52.761871 
	C383.751160,63.819962 363.136383,76.871788 344.554993,92.971512 
	C337.826996,98.800957 330.977600,104.545143 324.743500,110.879280 
	C307.802155,128.092453 293.271027,147.232697 281.029022,168.047821 
	C267.890076,190.388016 257.474335,213.989334 249.729294,238.715897 
	C242.878876,260.586273 237.018326,282.722839 233.994644,305.501862 
	C231.908340,321.219299 229.948700,336.953918 228.003967,352.689697 
	C225.156906,375.726807 224.929886,398.873444 224.963486,422.048157 
	C225.064713,491.861938 225.000000,561.675964 225.000000,631.489929 
	C225.000000,633.461243 225.000000,635.432556 225.000000,638.000000 
	C150.429520,638.000000 76.183418,638.000000 1.468657,638.000000 
	C1.000000,425.740723 1.000000,213.481461 1.000000,1.000000 
	C206.354172,1.000000 411.708435,1.000000 617.531372,0.999999 
z"/>
<path fill="#FFFFFF" opacity="1.000000" stroke="none" 
	d="
M957.000000,637.531372 
	C851.204224,638.000000 745.408508,638.000000 639.000000,638.000000 
	C639.000000,635.929504 639.000000,634.162048 639.000000,632.394592 
	C639.000000,566.067749 638.697815,499.738678 639.187683,433.415436 
	C639.330994,414.009583 641.514893,394.553558 649.315613,376.352478 
	C658.998108,353.760712 676.453064,339.785400 699.332581,332.021393 
	C713.260254,327.295105 727.496094,324.007294 742.209717,322.984833 
	C751.403625,322.345947 760.590576,321.154663 769.787537,321.082001 
	C831.878174,320.591278 893.970764,320.333313 956.531372,320.000000 
	C957.000000,425.687561 957.000000,531.375122 957.000000,637.531372 
z"/>
<path fill="#FFFFFF" opacity="1.000000" stroke="none" 
	d="
M628.571533,0.999999 
	C627.102051,1.239539 625.204163,1.479079 623.153076,1.359310 
	C624.714355,1.000000 626.428711,1.000000 628.571533,0.999999 
z"/>
<path fill="#FFFFFF" opacity="1.000000" stroke="none" 
	d="
M957.000000,654.625000 
	C956.783997,654.069702 956.567993,653.139465 956.675964,652.104614 
	C957.000000,652.750000 957.000000,653.500000 957.000000,654.625000 
z"/>
</svg>