<svg version="1.1" id="Layer_1" xmlns="http://www.w3.org/2000/svg" xmlns:xlink="http://www.w3.org/1999/xlink" x="0px" y="0px"
	 width="100%" viewBox="0 0 504 504" enable-background="new 0 0 504 504" xml:space="preserve">
<path fill="#000000" opacity="1.000000" stroke="none" 
	d="
M1.000000,346.000000 
	C1.000000,284.312439 1.000000,222.624878 1.407342,160.303421 
	C1.543123,154.779678 1.271562,149.889847 1.000000,145.000000 
	C1.000000,144.555557 1.000000,144.111099 1.391220,143.209564 
	C2.188195,141.740921 2.824665,140.759872 2.963041,139.712982 
	C4.027070,131.663101 4.606427,123.529709 6.060251,115.554214 
	C11.765574,84.255547 25.368612,57.393520 49.949780,36.352684 
	C61.910904,26.114269 75.117905,18.455761 89.714714,13.025912 
	C111.425507,4.949739 134.015671,1.991510 157.076096,1.956684 
	C158.717865,1.954205 160.358719,1.333331 162.000000,0.999999 
	C222.354233,1.000000 282.708466,1.000000 343.698486,1.408741 
	C358.063477,2.878247 371.848175,3.479071 385.506378,5.127937 
	C399.423462,6.808051 412.731415,11.039481 425.551727,16.875496 
	C442.673279,24.669489 457.199860,35.606205 469.563568,49.867386 
	C479.994263,61.898956 487.543304,75.326035 493.054169,90.120369 
	C501.044800,111.571945 503.817627,133.847092 504.041595,156.571060 
	C504.059479,158.383682 504.666687,160.190491 505.000000,162.000000 
	C505.000000,222.354233 505.000000,282.708466 504.591278,343.698486 
	C503.121765,358.063507 502.520935,371.848175 500.872070,385.506378 
	C499.191925,399.423462 494.960571,412.731415 489.124542,425.551727 
	C481.330536,442.673279 470.393890,457.199860 456.132660,469.563538 
	C444.101105,479.994232 430.674011,487.543243 415.879608,493.054108 
	C394.428040,501.044739 372.152924,503.817657 349.428925,504.041626 
	C347.616333,504.059509 345.809509,504.666687 344.000000,505.000000 
	C283.645782,505.000000 223.291550,505.000000 162.301514,504.591248 
	C148.091660,503.122223 134.473831,502.444153 120.955574,500.896545 
	C106.830826,499.279480 93.344444,495.054291 80.396858,489.074005 
	C69.006004,483.812714 58.697525,477.163696 49.127197,468.917297 
	C38.083000,459.400940 29.065866,448.454163 22.054567,435.871613 
	C10.056670,414.339996 4.089968,391.052979 2.921367,366.471252 
	C2.865040,365.286377 1.666584,364.155853 0.999996,363.000000 
	C1.000000,362.555542 1.000000,362.111115 1.407347,361.168091 
	C1.543129,355.779694 1.271565,350.889832 1.000000,346.000000 
M446.044617,98.486115 
	C438.320557,81.840172 425.984863,69.540695 409.915131,61.052937 
	C396.040771,53.724743 380.878510,50.479427 365.405975,49.100681 
	C352.446075,47.945835 339.402191,46.998798 326.405762,47.114372 
	C266.572571,47.646450 206.712143,45.243679 146.902176,48.907009 
	C132.554062,49.785824 118.627541,52.006916 105.134300,56.997238 
	C88.259117,63.238331 74.926178,74.123032 65.128067,88.926659 
	C54.860477,104.439606 50.785217,122.257385 49.102650,140.523560 
	C47.909321,153.478455 46.999039,166.526855 47.114361,179.523315 
	C47.645287,239.356522 45.240181,299.217316 48.911980,359.026611 
	C49.792522,373.369598 51.992180,387.294556 56.980976,400.799744 
	C63.220295,417.690216 74.095238,431.043152 88.865959,440.851105 
	C104.350388,451.132935 122.188347,455.207092 140.452759,456.896301 
	C153.406998,458.094421 166.455948,459.001404 179.452347,458.885559 
	C239.285553,458.352264 299.146271,460.762329 358.955750,457.089478 
	C373.299622,456.208679 387.244263,454.075409 400.723938,449.008362 
	C420.386047,441.617279 435.071899,428.443970 444.889404,410.106079 
	C452.277863,396.305267 455.575562,381.099182 456.889771,365.618469 
	C458.074799,351.659180 458.916779,337.620331 458.896515,323.618073 
	C458.818726,269.870239 458.366364,216.122711 457.961639,162.375763 
	C457.905762,154.955658 457.567596,147.518845 456.920837,140.128220 
	C456.441528,134.651489 455.685425,129.121124 454.274872,123.821671 
	C452.053772,115.477013 449.178925,107.306366 446.044617,98.486115 
z"/>
<path fill="#FFFFFF" opacity="1.000000" stroke="none" 
	d="
M505.000000,161.531342 
	C504.666687,160.190491 504.059479,158.383682 504.041595,156.571060 
	C503.817627,133.847092 501.044800,111.571945 493.054169,90.120369 
	C487.543304,75.326035 479.994263,61.898956 469.563568,49.867386 
	C457.199860,35.606205 442.673279,24.669489 425.551727,16.875496 
	C412.731415,11.039481 399.423462,6.808051 385.506378,5.127937 
	C371.848175,3.479071 358.063477,2.878247 344.167145,1.408741 
	C397.593658,1.000000 451.187347,1.000000 505.000000,1.000000 
	C505.000000,54.354027 505.000000,107.708359 505.000000,161.531342 
z"/>
<path fill="#FFFFFF" opacity="1.000000" stroke="none" 
	d="
M344.468658,505.000000 
	C345.809509,504.666687 347.616333,504.059509 349.428925,504.041626 
	C372.152924,503.817657 394.428040,501.044739 415.879608,493.054108 
	C430.674011,487.543243 444.101105,479.994232 456.132660,469.563538 
	C470.393890,457.199860 481.330536,442.673279 489.124542,425.551727 
	C494.960571,412.731415 499.191925,399.423462 500.872070,385.506378 
	C502.520935,371.848175 503.121765,358.063507 504.591278,344.167175 
	C505.000000,397.593658 505.000000,451.187347 505.000000,505.000000 
	C451.645966,505.000000 398.291656,505.000000 344.468658,505.000000 
z"/>
<path fill="#FFFFFF" opacity="1.000000" stroke="none" 
	d="
M161.531342,0.999999 
	C160.358719,1.333331 158.717865,1.954205 157.076096,1.956684 
	C134.015671,1.991510 111.425507,4.949739 89.714714,13.025912 
	C75.117905,18.455761 61.910904,26.114269 49.949780,36.352684 
	C25.368612,57.393520 11.765574,84.255547 6.060251,115.554214 
	C4.606427,123.529709 4.027070,131.663101 2.963041,139.712982 
	C2.824665,140.759872 2.188195,141.740921 1.391220,142.876221 
	C1.000000,95.735092 1.000000,48.470188 1.000000,1.000000 
	C54.354053,1.000000 107.708366,1.000000 161.531342,0.999999 
z"/>
<path fill="#FFFFFF" opacity="1.000000" stroke="none" 
	d="
M0.999996,363.468658 
	C1.666584,364.155853 2.865040,365.286377 2.921367,366.471252 
	C4.089968,391.052979 10.056670,414.339996 22.054567,435.871613 
	C29.065866,448.454163 38.083000,459.400940 49.127197,468.917297 
	C58.697525,477.163696 69.006004,483.812714 80.396858,489.074005 
	C93.344444,495.054291 106.830826,499.279480 120.955574,500.896545 
	C134.473831,502.444153 148.091660,503.122223 161.832855,504.591248 
	C108.410919,505.000000 54.821835,505.000000 1.000000,505.000000 
	C1.000000,457.979370 1.000000,410.958344 0.999996,363.468658 
z"/>
<path fill="#FFFFFF" opacity="1.000000" stroke="none" 
	d="
M1.000000,145.466125 
	C1.271562,149.889847 1.543123,154.779678 1.407342,159.834763 
	C1.000000,155.310745 1.000000,150.621490 1.000000,145.466125 
z"/>
<path fill="#FFFFFF" opacity="1.000000" stroke="none" 
	d="
M1.000000,346.466125 
	C1.271565,350.889832 1.543129,355.779694 1.407347,360.834778 
	C1.000000,356.310760 1.000000,351.621490 1.000000,346.466125 
z"/>
<path fill="#FFFFFF" opacity="1.000000" stroke="none" 
	d="
M446.312744,98.774078 
	C449.178925,107.306366 452.053772,115.477013 454.274872,123.821671 
	C455.685425,129.121124 456.441528,134.651489 456.920837,140.128220 
	C457.567596,147.518845 457.905762,154.955658 457.961639,162.375763 
	C458.366364,216.122711 458.818726,269.870239 458.896515,323.618073 
	C458.916779,337.620331 458.074799,351.659180 456.889771,365.618469 
	C455.575562,381.099182 452.277863,396.305267 444.889404,410.106079 
	C435.071899,428.443970 420.386047,441.617279 400.723938,449.008362 
	C387.244263,454.075409 373.299622,456.208679 358.955750,457.089478 
	C299.146271,460.762329 239.285553,458.352264 179.452347,458.885559 
	C166.455948,459.001404 153.406998,458.094421 140.452759,456.896301 
	C122.188347,455.207092 104.350388,451.132935 88.865959,440.851105 
	C74.095238,431.043152 63.220295,417.690216 56.980976,400.799744 
	C51.992180,387.294556 49.792522,373.369598 48.911980,359.026611 
	C45.240181,299.217316 47.645287,239.356522 47.114361,179.523315 
	C46.999039,166.526855 47.909321,153.478455 49.102650,140.523560 
	C50.785217,122.257385 54.860477,104.439606 65.128067,88.926659 
	C74.926178,74.123032 88.259117,63.238331 105.134300,56.997238 
	C118.627541,52.006916 132.554062,49.785824 146.902176,48.907009 
	C206.712143,45.243679 266.572571,47.646450 326.405762,47.114372 
	C339.402191,46.998798 352.446075,47.945835 365.405975,49.100681 
	C380.878510,50.479427 396.040771,53.724743 409.915131,61.052937 
	C425.984863,69.540695 438.320557,81.840172 446.312744,98.774078 
M130.956253,297.546082 
	C132.505737,301.412048 133.849762,305.376038 135.639145,309.127594 
	C145.022537,328.800690 158.878281,344.707642 176.238144,357.820221 
	C197.877213,374.164978 222.485062,381.907745 249.198898,382.785126 
	C259.227295,383.114471 269.413971,381.498322 279.391632,379.909485 
	C301.069885,376.457489 320.155273,366.797577 336.623810,352.647949 
	C356.216370,335.814148 370.459869,315.193939 377.631805,289.938660 
	C383.360168,269.766754 384.785767,249.391373 380.821747,228.934082 
	C377.059143,209.516525 369.597229,191.562271 357.343689,175.598953 
	C340.946228,154.237091 320.681732,138.444656 295.028870,130.039612 
	C277.403412,124.264702 259.427155,121.814476 240.698914,123.799400 
	C225.408966,125.419914 210.858582,129.056473 197.072876,135.527084 
	C177.209854,144.850189 161.177673,158.899506 147.994934,176.424255 
	C132.132324,197.511520 124.663086,221.511932 123.096954,247.461319 
	C122.076477,264.369598 125.235901,280.847260 130.956253,297.546082 
M362.022827,136.260101 
	C373.203735,151.755386 393.286652,152.009125 404.940338,144.051788 
	C420.972382,133.104797 422.209198,110.656456 410.062256,97.517822 
	C397.773743,84.226006 375.232086,84.362740 363.145111,99.254532 
	C355.438080,108.750008 354.580017,126.373024 362.022827,136.260101 
z"/>
<path fill="#000000" opacity="1.000000" stroke="none" 
	d="
M130.685791,297.240295 
	C125.235901,280.847260 122.076477,264.369598 123.096954,247.461319 
	C124.663086,221.511932 132.132324,197.511520 147.994934,176.424255 
	C161.177673,158.899506 177.209854,144.850189 197.072876,135.527084 
	C210.858582,129.056473 225.408966,125.419914 240.698914,123.799400 
	C259.427155,121.814476 277.403412,124.264702 295.028870,130.039612 
	C320.681732,138.444656 340.946228,154.237091 357.343689,175.598953 
	C369.597229,191.562271 377.059143,209.516525 380.821747,228.934082 
	C384.785767,249.391373 383.360168,269.766754 377.631805,289.938660 
	C370.459869,315.193939 356.216370,335.814148 336.623810,352.647949 
	C320.155273,366.797577 301.069885,376.457489 279.391632,379.909485 
	C269.413971,381.498322 259.227295,383.114471 249.198898,382.785126 
	C222.485062,381.907745 197.877213,374.164978 176.238144,357.820221 
	C158.878281,344.707642 145.022537,328.800690 135.639145,309.127594 
	C133.849762,305.376038 132.505737,301.412048 130.685791,297.240295 
M305.322327,188.027481 
	C305.008728,187.951370 304.620697,187.968475 304.392120,187.785904 
	C283.584381,171.170853 260.076111,166.418304 234.300980,171.976746 
	C214.592270,176.226990 198.996063,186.960632 186.735153,202.765549 
	C171.084564,222.939957 166.500259,246.011292 171.448120,270.462067 
	C175.855408,292.241425 188.135330,309.677277 206.735733,322.174683 
	C226.653687,335.557343 248.480331,339.219879 271.839050,334.031342 
	C291.706726,329.618317 307.573395,318.857330 319.655121,302.738403 
	C335.887146,281.082367 339.966705,256.819244 333.286530,230.788086 
	C328.903931,213.710251 318.863098,200.082397 305.322327,188.027481 
z"/>
<path fill="#000000" opacity="1.000000" stroke="none" 
	d="
M361.988678,135.886688 
	C354.580017,126.373024 355.438080,108.750008 363.145111,99.254532 
	C375.232086,84.362740 397.773743,84.226006 410.062256,97.517822 
	C422.209198,110.656456 420.972382,133.104797 404.940338,144.051788 
	C393.286652,152.009125 373.203735,151.755386 361.988678,135.886688 
z"/>
<path fill="#FFFFFF" opacity="1.000000" stroke="none" 
	d="
M305.629211,188.222046 
	C318.863098,200.082397 328.903931,213.710251 333.286530,230.788086 
	C339.966705,256.819244 335.887146,281.082367 319.655121,302.738403 
	C307.573395,318.857330 291.706726,329.618317 271.839050,334.031342 
	C248.480331,339.219879 226.653687,335.557343 206.735733,322.174683 
	C188.135330,309.677277 175.855408,292.241425 171.448120,270.462067 
	C166.500259,246.011292 171.084564,222.939957 186.735153,202.765549 
	C198.996063,186.960632 214.592270,176.226990 234.300980,171.976746 
	C260.076111,166.418304 283.584381,171.170853 304.392120,187.785904 
	C304.620697,187.968475 305.008728,187.951370 305.629211,188.222046 
z"/>
</svg>