<svg version="1.1" id="Layer_1" xmlns="http://www.w3.org/2000/svg" xmlns:xlink="http://www.w3.org/1999/xlink" x="0px" y="0px"
	 width="100%" viewBox="0 0 1687 1687" enable-background="new 0 0 1687 1687" xml:space="preserve">
<path fill="#000000" opacity="1.000000" stroke="none" 
	d="
M1059.000000,1688.000000 
	C706.000122,1688.000000 353.500214,1688.000000 1.000237,1688.000000 
	C1.000158,1125.666992 1.000158,563.333862 1.000079,1.000614 
	C563.332886,1.000409 1125.665771,1.000409 1687.999023,1.000205 
	C1687.999268,563.332703 1687.999268,1125.665405 1687.999634,1687.999023 
	C1478.500000,1688.000000 1269.000000,1688.000000 1059.000000,1688.000000 
M286.517639,1192.024658 
	C285.822144,1192.645996 285.126648,1193.267334 284.431213,1193.888794 
	C285.273438,1194.630737 286.115631,1195.372803 287.269104,1196.735840 
	C289.611298,1198.171875 291.885162,1199.736450 294.306366,1201.024048 
	C317.090729,1213.140991 339.618988,1225.787109 362.798492,1237.097290 
	C379.057281,1245.030396 396.019867,1251.649658 413.014801,1257.915649 
	C438.997559,1267.495361 465.426636,1275.763672 492.629578,1281.279175 
	C507.105377,1284.214355 521.530029,1287.473267 536.095093,1289.874146 
	C547.862732,1291.814087 559.783325,1292.956787 571.677429,1293.966064 
	C586.095642,1295.189331 600.557373,1295.900635 615.865845,1296.978394 
	C621.449768,1297.318970 627.036804,1297.984131 632.617065,1297.932007 
	C644.047974,1297.825073 655.481079,1297.463135 666.902649,1296.963257 
	C678.267029,1296.465942 689.645630,1295.967896 700.968933,1294.933716 
	C715.960327,1293.564453 730.964966,1292.087402 745.852600,1289.899536 
	C763.386902,1287.322876 780.986084,1284.727417 798.227295,1280.720947 
	C825.980042,1274.272339 853.278564,1266.131836 880.029846,1256.134766 
	C906.205078,1246.352783 931.709412,1235.201782 956.312012,1221.961670 
	C980.665588,1208.855713 1004.115784,1194.379761 1026.634521,1178.251831 
	C1051.011353,1160.793213 1073.926758,1141.682373 1095.471924,1120.911743 
	C1105.146606,1111.584961 1114.408691,1101.806763 1123.497559,1091.902466 
	C1133.201294,1081.328003 1142.650146,1070.507080 1151.906738,1059.537598 
	C1168.737305,1039.593018 1183.424072,1018.114746 1197.539307,996.168030 
	C1215.172363,968.751953 1230.218140,939.996460 1243.829834,910.463501 
	C1254.813965,886.631531 1264.605225,862.285400 1271.976685,837.067322 
	C1277.606201,817.808472 1282.814575,798.424011 1288.021118,779.044617 
	C1295.865234,749.847961 1299.511719,719.914490 1302.862793,689.977112 
	C1304.310913,677.040405 1304.628540,663.950500 1304.921509,650.918030 
	C1305.258423,635.925903 1304.902588,620.919067 1305.118042,605.922485 
	C1305.146240,603.957947 1306.266724,601.390869 1307.756348,600.174011 
	C1313.804443,595.233276 1320.638672,591.195984 1326.373901,585.942322 
	C1343.425293,570.322937 1360.746460,554.909424 1376.703857,538.212646 
	C1389.264282,525.070068 1400.065918,510.229309 1411.412231,495.954712 
	C1414.595215,491.950165 1416.941528,487.280518 1419.671631,482.915985 
	C1419.272705,482.635834 1418.873657,482.355682 1418.474731,482.075562 
	C1404.903931,487.043243 1391.466309,492.423706 1377.724976,496.863678 
	C1363.718506,501.389313 1349.528320,505.478455 1335.205811,508.857025 
	C1321.203247,512.160217 1307.083984,515.384155 1291.937256,516.048340 
	C1301.439453,508.849091 1310.810059,502.981598 1318.659668,495.514954 
	C1330.552734,484.202087 1342.025879,472.308136 1352.523315,459.700226 
	C1368.346924,440.695129 1379.149292,418.654327 1387.743652,395.548828 
	C1388.292725,394.072693 1387.866699,392.233887 1387.894165,390.563782 
	C1386.262939,390.872559 1384.460815,390.835144 1383.026733,391.543274 
	C1367.608521,399.156555 1352.423950,407.265625 1336.833618,414.502594 
	C1309.410400,427.232452 1280.451294,435.520447 1251.228394,442.942322 
	C1244.546997,444.639252 1239.279907,443.941711 1234.226929,438.092560 
	C1228.519897,431.486389 1221.661377,425.710632 1214.667603,420.413544 
	C1198.577026,408.226593 1181.415894,397.841614 1162.743774,389.840485 
	C1136.857056,378.747955 1109.854370,372.701050 1081.918701,371.149017 
	C1062.002808,370.042572 1042.199585,371.889221 1022.531311,375.863617 
	C993.982422,381.632477 967.774048,392.791595 943.279114,408.252319 
	C926.581909,418.791321 911.530762,431.377533 898.449646,446.165588 
	C891.303711,454.243927 884.306213,462.533539 878.054688,471.307129 
	C862.667175,492.902191 851.575928,516.667480 844.421387,542.195190 
	C839.243469,560.670471 836.645203,579.587830 836.022034,598.754272 
	C835.375854,618.628296 837.532043,638.262207 841.890381,658.298584 
	C833.819092,657.506287 826.155212,656.819031 818.507019,655.987976 
	C806.795837,654.715515 795.031372,653.751770 783.405029,651.922607 
	C764.129578,648.889893 744.700989,646.274048 725.786926,641.644470 
	C703.187012,636.112671 680.901306,629.134277 658.765686,621.906128 
	C625.240540,610.958801 592.951843,596.914307 562.255310,579.531128 
	C542.915588,568.579224 523.840576,557.079773 505.244965,544.911926 
	C474.453430,524.763672 445.977112,501.660370 419.314575,476.212860 
	C402.870056,460.517670 387.067505,444.317169 372.403015,426.969360 
	C368.792877,422.698578 364.823822,418.731201 360.356964,413.908783 
	C329.710541,468.307281 321.526031,524.768860 334.683929,584.082092 
	C347.844086,643.405457 380.789764,689.961975 430.350281,725.618286 
	C393.359833,724.117004 359.743500,713.485962 326.867676,696.640991 
	C326.714783,753.502441 343.448181,802.891541 377.661652,846.003845 
	C411.824707,889.052429 456.382996,916.259155 509.835327,929.991821 
	C493.403687,933.018127 477.130157,935.466431 460.765961,936.814575 
	C452.090515,937.529297 443.245483,936.517883 434.499847,935.940247 
	C427.808990,935.498352 421.156342,934.491394 414.481140,933.789062 
	C412.963165,933.629333 411.422028,933.689331 409.891571,933.648193 
	C409.998199,935.284241 409.635101,937.140747 410.283539,938.522583 
	C417.438568,953.770386 423.943451,969.399658 432.197327,984.038757 
	C446.981506,1010.260010 467.550842,1031.696289 491.512756,1049.714844 
	C508.436493,1062.441162 526.846985,1072.803223 546.738647,1080.273071 
	C564.405823,1086.907471 582.502747,1091.958130 601.339478,1093.999756 
	C609.058167,1094.836304 616.778015,1095.661499 625.187988,1096.566162 
	C623.144470,1098.108398 621.674866,1099.353760 620.076355,1100.402832 
	C602.701294,1111.806396 585.676819,1123.803589 567.823364,1134.403687 
	C545.045288,1147.927368 520.861084,1158.755493 495.847870,1167.547974 
	C471.814026,1175.996216 447.410492,1183.214844 422.146027,1186.999634 
	C407.299255,1189.223633 392.395081,1191.073120 377.502197,1192.977295 
	C370.686340,1193.848755 363.835327,1194.445312 356.072815,1195.021606 
	C343.381805,1195.069946 330.690796,1195.118286 317.493805,1195.042847 
	C317.325134,1195.084106 317.156494,1195.125366 316.149048,1194.995117 
	C314.092957,1194.663452 312.048065,1194.204468 309.978851,1194.022705 
	C302.365692,1193.354248 294.744415,1192.777954 286.517639,1192.024658 
z"/>
<path fill="#55ADEE" opacity="1.000000" stroke="none" 
	d="
M316.987823,1195.166626 
	C317.156494,1195.125366 317.325134,1195.084106 317.845734,1195.447388 
	C320.118164,1196.891479 322.009827,1198.760742 323.964111,1198.828613 
	C333.052246,1199.144531 342.167145,1199.179810 351.249512,1198.785767 
	C353.215088,1198.700439 355.085846,1196.430420 357.000305,1195.166626 
	C363.835327,1194.445312 370.686340,1193.848755 377.502197,1192.977295 
	C392.395081,1191.073120 407.299255,1189.223633 422.146027,1186.999634 
	C447.410492,1183.214844 471.814026,1175.996216 495.847870,1167.547974 
	C520.861084,1158.755493 545.045288,1147.927368 567.823364,1134.403687 
	C585.676819,1123.803589 602.701294,1111.806396 620.076355,1100.402832 
	C621.674866,1099.353760 623.144470,1098.108398 625.187988,1096.566162 
	C616.778015,1095.661499 609.058167,1094.836304 601.339478,1093.999756 
	C582.502747,1091.958130 564.405823,1086.907471 546.738647,1080.273071 
	C526.846985,1072.803223 508.436493,1062.441162 491.512756,1049.714844 
	C467.550842,1031.696289 446.981506,1010.260010 432.197327,984.038757 
	C423.943451,969.399658 417.438568,953.770386 410.283539,938.522583 
	C409.635101,937.140747 409.998199,935.284241 409.891571,933.648193 
	C411.422028,933.689331 412.963165,933.629333 414.481140,933.789062 
	C421.156342,934.491394 427.808990,935.498352 434.499847,935.940247 
	C443.245483,936.517883 452.090515,937.529297 460.765961,936.814575 
	C477.130157,935.466431 493.403687,933.018127 509.835327,929.991821 
	C456.382996,916.259155 411.824707,889.052429 377.661652,846.003845 
	C343.448181,802.891541 326.714783,753.502441 326.867676,696.640991 
	C359.743500,713.485962 393.359833,724.117004 430.350281,725.618286 
	C380.789764,689.961975 347.844086,643.405457 334.683929,584.082092 
	C321.526031,524.768860 329.710541,468.307281 360.356964,413.908783 
	C364.823822,418.731201 368.792877,422.698578 372.403015,426.969360 
	C387.067505,444.317169 402.870056,460.517670 419.314575,476.212860 
	C445.977112,501.660370 474.453430,524.763672 505.244965,544.911926 
	C523.840576,557.079773 542.915588,568.579224 562.255310,579.531128 
	C592.951843,596.914307 625.240540,610.958801 658.765686,621.906128 
	C680.901306,629.134277 703.187012,636.112671 725.786926,641.644470 
	C744.700989,646.274048 764.129578,648.889893 783.405029,651.922607 
	C795.031372,653.751770 806.795837,654.715515 818.507019,655.987976 
	C826.155212,656.819031 833.819092,657.506287 841.890381,658.298584 
	C837.532043,638.262207 835.375854,618.628296 836.022034,598.754272 
	C836.645203,579.587830 839.243469,560.670471 844.421387,542.195190 
	C851.575928,516.667480 862.667175,492.902191 878.054688,471.307129 
	C884.306213,462.533539 891.303711,454.243927 898.449646,446.165588 
	C911.530762,431.377533 926.581909,418.791321 943.279114,408.252319 
	C967.774048,392.791595 993.982422,381.632477 1022.531311,375.863617 
	C1042.199585,371.889221 1062.002808,370.042572 1081.918701,371.149017 
	C1109.854370,372.701050 1136.857056,378.747955 1162.743774,389.840485 
	C1181.415894,397.841614 1198.577026,408.226593 1214.667603,420.413544 
	C1221.661377,425.710632 1228.519897,431.486389 1234.226929,438.092560 
	C1239.279907,443.941711 1244.546997,444.639252 1251.228394,442.942322 
	C1280.451294,435.520447 1309.410400,427.232452 1336.833618,414.502594 
	C1352.423950,407.265625 1367.608521,399.156555 1383.026733,391.543274 
	C1384.460815,390.835144 1386.262939,390.872559 1387.894165,390.563782 
	C1387.866699,392.233887 1388.292725,394.072693 1387.743652,395.548828 
	C1379.149292,418.654327 1368.346924,440.695129 1352.523315,459.700226 
	C1342.025879,472.308136 1330.552734,484.202087 1318.659668,495.514954 
	C1310.810059,502.981598 1301.439453,508.849091 1291.937256,516.048340 
	C1307.083984,515.384155 1321.203247,512.160217 1335.205811,508.857025 
	C1349.528320,505.478455 1363.718506,501.389313 1377.724976,496.863678 
	C1391.466309,492.423706 1404.903931,487.043243 1418.474731,482.075562 
	C1418.873657,482.355682 1419.272705,482.635834 1419.671631,482.915985 
	C1416.941528,487.280518 1414.595215,491.950165 1411.412231,495.954712 
	C1400.065918,510.229309 1389.264282,525.070068 1376.703857,538.212646 
	C1360.746460,554.909424 1343.425293,570.322937 1326.373901,585.942322 
	C1320.638672,591.195984 1313.804443,595.233276 1307.756348,600.174011 
	C1306.266724,601.390869 1305.146240,603.957947 1305.118042,605.922485 
	C1304.902588,620.919067 1305.258423,635.925903 1304.921509,650.918030 
	C1304.628540,663.950500 1304.310913,677.040405 1302.862793,689.977112 
	C1299.511719,719.914490 1295.865234,749.847961 1288.021118,779.044617 
	C1282.814575,798.424011 1277.606201,817.808472 1271.976685,837.067322 
	C1264.605225,862.285400 1254.813965,886.631531 1243.829834,910.463501 
	C1230.218140,939.996460 1215.172363,968.751953 1197.539307,996.168030 
	C1183.424072,1018.114746 1168.737305,1039.593018 1151.906738,1059.537598 
	C1142.650146,1070.507080 1133.201294,1081.328003 1123.497559,1091.902466 
	C1114.408691,1101.806763 1105.146606,1111.584961 1095.471924,1120.911743 
	C1073.926758,1141.682373 1051.011353,1160.793213 1026.634521,1178.251831 
	C1004.115784,1194.379761 980.665588,1208.855713 956.312012,1221.961670 
	C931.709412,1235.201782 906.205078,1246.352783 880.029846,1256.134766 
	C853.278564,1266.131836 825.980042,1274.272339 798.227295,1280.720947 
	C780.986084,1284.727417 763.386902,1287.322876 745.852600,1289.899536 
	C730.964966,1292.087402 715.960327,1293.564453 700.968933,1294.933716 
	C689.645630,1295.967896 678.267029,1296.465942 666.902649,1296.963257 
	C655.481079,1297.463135 644.047974,1297.825073 632.617065,1297.932007 
	C627.036804,1297.984131 621.449768,1297.318970 615.334106,1296.563232 
	C612.366882,1295.099854 609.992371,1293.340210 607.485657,1293.125488 
	C596.076538,1292.148438 584.526611,1292.343750 573.218689,1290.754883 
	C549.049133,1287.359131 524.858459,1283.824951 500.926636,1279.084229 
	C448.079285,1268.615479 397.752838,1250.417725 349.308380,1227.036865 
	C335.246460,1220.250122 321.703369,1212.382202 307.980499,1204.903320 
	C304.424133,1202.965210 301.086731,1200.625244 297.648773,1198.469849 
	C297.766418,1198.048584 297.884094,1197.627441 298.001740,1197.206177 
	C299.851685,1197.348145 301.702087,1197.614014 303.551483,1197.607300 
	C308.164612,1197.590820 313.244232,1199.994995 316.987823,1195.166626 
z"/>
<path fill="#55ADEE" opacity="1.000000" stroke="none" 
	d="
M316.568420,1195.080811 
	C313.244232,1199.994995 308.164612,1197.590820 303.551483,1197.607300 
	C301.702087,1197.614014 299.851685,1197.348145 298.001740,1197.206177 
	C297.884094,1197.627441 297.766418,1198.048584 297.648773,1198.469849 
	C301.086731,1200.625244 304.424133,1202.965210 307.980499,1204.903320 
	C321.703369,1212.382202 335.246460,1220.250122 349.308380,1227.036865 
	C397.752838,1250.417725 448.079285,1268.615479 500.926636,1279.084229 
	C524.858459,1283.824951 549.049133,1287.359131 573.218689,1290.754883 
	C584.526611,1292.343750 596.076538,1292.148438 607.485657,1293.125488 
	C609.992371,1293.340210 612.366882,1295.099854 614.901245,1296.490723 
	C600.557373,1295.900635 586.095642,1295.189331 571.677429,1293.966064 
	C559.783325,1292.956787 547.862732,1291.814087 536.095093,1289.874146 
	C521.530029,1287.473267 507.105377,1284.214355 492.629578,1281.279175 
	C465.426636,1275.763672 438.997559,1267.495361 413.014801,1257.915649 
	C396.019867,1251.649658 379.057281,1245.030396 362.798492,1237.097290 
	C339.618988,1225.787109 317.090729,1213.140991 294.306366,1201.024048 
	C291.885162,1199.736450 289.611298,1198.171875 287.131409,1195.931763 
	C287.037903,1194.140747 287.082062,1193.153809 287.126221,1192.166870 
	C294.744415,1192.777954 302.365692,1193.354248 309.978851,1194.022705 
	C312.048065,1194.204468 314.092957,1194.663452 316.568420,1195.080811 
z"/>
<path fill="#55ADEE" opacity="1.000000" stroke="none" 
	d="
M356.536560,1195.094116 
	C355.085846,1196.430420 353.215088,1198.700439 351.249512,1198.785767 
	C342.167145,1199.179810 333.052246,1199.144531 323.964111,1198.828613 
	C322.009827,1198.760742 320.118164,1196.891479 318.098724,1195.509277 
	C330.690796,1195.118286 343.381805,1195.069946 356.536560,1195.094116 
z"/>
<path fill="#55ACEE" opacity="1.000000" stroke="none" 
	d="
M286.821930,1192.095703 
	C287.082062,1193.153809 287.037903,1194.140747 286.975769,1195.621216 
	C286.115631,1195.372803 285.273438,1194.630737 284.431183,1193.888794 
	C285.126648,1193.267334 285.822144,1192.645996 286.821930,1192.095703 
z"/>
</svg>